<svg width="10" height="10" viewBox="0 0 10 10" fill="none" xmlns="http://www.w3.org/2000/svg">
<path fill-rule="evenodd" clip-rule="evenodd" d="M0.434266 0.434327C0.746685 0.121907 1.25322 0.121907 1.56564 0.434327L4.99995 3.86864L8.43427 0.434327C8.74669 0.121907 9.25322 0.121907 9.56564 0.434327C9.87806 0.746746 9.87806 1.25328 9.56564 1.5657L6.13132 5.00001L9.56564 8.43433C9.87806 8.74675 9.87806 9.25328 9.56564 9.5657C9.25322 9.87812 8.74669 9.87812 8.43427 9.5657L4.99995 6.13138L1.56564 9.5657C1.25322 9.87812 0.746685 9.87812 0.434266 9.5657C0.121846 9.25328 0.121846 8.74675 0.434266 8.43433L3.86858 5.00001L0.434266 1.5657C0.121846 1.25328 0.121846 0.746746 0.434266 0.434327Z" fill="white"/>
</svg>
